<?xml version="1.0" encoding="utf-8"?>
<!-- Generator: Adobe Illustrator 16.0.0, SVG Export Plug-In . SVG Version: 6.00 Build 0)  -->
<!DOCTYPE svg PUBLIC "-//W3C//DTD SVG 1.1//EN" "http://www.w3.org/Graphics/SVG/1.1/DTD/svg11.dtd">
<svg version="1.1" id="Layer_1" xmlns="http://www.w3.org/2000/svg" xmlns:xlink="http://www.w3.org/1999/xlink" x="0px" y="0px"
	 width="488.979px" height="205.583px" viewBox="0 0 488.979 205.583" enable-background="new 0 0 488.979 205.583"
	 xml:space="preserve">
<g>
	<path fill="#3C568F" d="M199.62,153.185c-0.486,0.233-1.639,0.521-3.097,0.521c-4.195,0-6.355-2.629-6.355-6.086
		c0-4.123,2.953-6.409,6.626-6.409c1.422,0,2.502,0.288,2.989,0.521l-0.576,2.179c-0.54-0.233-1.314-0.45-2.305-0.45
		c-2.161,0-3.853,1.314-3.853,4.016c0,2.413,1.44,3.943,3.871,3.943c0.846,0,1.747-0.162,2.305-0.396L199.62,153.185z"/>
	<path fill="#3C568F" d="M206.729,153.725c-3.583,0-5.708-2.719-5.708-6.176c0-3.638,2.34-6.356,5.906-6.356
		c3.727,0,5.762,2.791,5.762,6.141c0,3.997-2.395,6.392-5.942,6.392H206.729z M206.873,151.546c1.854,0,2.917-1.747,2.917-4.123
		c0-2.179-1.026-4.052-2.917-4.052s-2.953,1.837-2.953,4.105c0,2.287,1.098,4.069,2.935,4.069H206.873z"/>
	<path fill="#3C568F" d="M214.936,153.526v-12.136h3.205l2.521,4.447c0.72,1.278,1.422,2.791,1.98,4.159h0.036
		c-0.162-1.603-0.216-3.24-0.216-5.077v-3.529h2.521v12.136h-2.881l-2.593-4.682c-0.72-1.314-1.53-2.862-2.106-4.285h-0.072
		c0.09,1.621,0.126,3.331,0.126,5.312v3.655H214.936z"/>
	<path fill="#3C568F" d="M228.174,153.526v-12.136h3.205l2.521,4.447c0.72,1.278,1.422,2.791,1.98,4.159h0.036
		c-0.162-1.603-0.216-3.24-0.216-5.077v-3.529h2.521v12.136h-2.881l-2.593-4.682c-0.72-1.314-1.53-2.862-2.106-4.285h-0.072
		c0.09,1.621,0.126,3.331,0.126,5.312v3.655H228.174z"/>
	<path fill="#3C568F" d="M248.625,148.395h-4.466v2.881h4.988v2.251h-7.724v-12.136h7.472v2.251h-4.736v2.521h4.466V148.395z"/>
	<path fill="#3C568F" d="M260.596,153.185c-0.486,0.233-1.639,0.521-3.098,0.521c-4.195,0-6.355-2.629-6.355-6.086
		c0-4.123,2.953-6.409,6.625-6.409c1.424,0,2.504,0.288,2.99,0.521l-0.576,2.179c-0.541-0.233-1.314-0.45-2.305-0.45
		c-2.162,0-3.854,1.314-3.854,4.016c0,2.413,1.439,3.943,3.871,3.943c0.846,0,1.746-0.162,2.305-0.396L260.596,153.185z"/>
	<path fill="#3C568F" d="M265.803,143.695h-3.277v-2.305h9.326v2.305h-3.312v9.831h-2.736V143.695z"/>
	<path fill="#3C568F" d="M281.18,148.395h-4.465v2.881h4.986v2.251h-7.725v-12.136h7.473v2.251h-4.734v2.521h4.465V148.395z"/>
	<path fill="#3C568F" d="M284.328,141.571c1.008-0.181,2.322-0.271,3.691-0.271c2.322,0,3.834,0.432,4.986,1.296
		c1.26,0.937,2.053,2.413,2.053,4.574c0,2.322-0.846,3.925-1.998,4.915c-1.279,1.062-3.242,1.566-5.617,1.566
		c-1.424,0-2.449-0.09-3.115-0.18V141.571z M287.064,151.456c0.234,0.054,0.631,0.054,0.955,0.054
		c2.502,0.018,4.141-1.351,4.141-4.249c0-2.521-1.477-3.854-3.854-3.854c-0.594,0-1.008,0.054-1.242,0.108V151.456z"/>
	<path fill="#3C568F" d="M304.109,143.695h-3.275v-2.305h9.326v2.305h-3.312v9.831h-2.738V143.695z"/>
	<path fill="#3C568F" d="M316.855,153.725c-3.582,0-5.707-2.719-5.707-6.176c0-3.638,2.34-6.356,5.906-6.356
		c3.727,0,5.762,2.791,5.762,6.141c0,3.997-2.395,6.392-5.943,6.392H316.855z M317,151.546c1.855,0,2.916-1.747,2.916-4.123
		c0-2.179-1.025-4.052-2.916-4.052s-2.953,1.837-2.953,4.105c0,2.287,1.098,4.069,2.936,4.069H317z"/>
	<path fill="#3C568F" d="M331.795,143.695h-3.277v-2.305h9.326v2.305h-3.312v9.831h-2.736V143.695z"/>
	<path fill="#3C568F" d="M339.961,141.571c0.883-0.162,2.18-0.271,3.656-0.271c1.799,0,3.061,0.271,3.924,0.973
		c0.738,0.576,1.135,1.422,1.135,2.538c0,1.53-1.098,2.593-2.143,2.971v0.055c0.846,0.342,1.314,1.134,1.621,2.25
		c0.377,1.387,0.738,2.972,0.973,3.439h-2.811c-0.18-0.36-0.484-1.332-0.828-2.827c-0.342-1.53-0.863-1.927-1.998-1.944h-0.811
		v4.771h-2.719V141.571z M342.68,146.774h1.08c1.369,0,2.18-0.685,2.18-1.746c0-1.099-0.756-1.675-2.018-1.675
		c-0.666,0-1.043,0.036-1.242,0.09V146.774z"/>
	<path fill="#3C568F" d="M354.451,150.411l-0.846,3.115h-2.846l3.711-12.136h3.582l3.781,12.136h-2.953l-0.936-3.115H354.451z
		 M357.531,148.358l-0.756-2.574c-0.199-0.721-0.414-1.639-0.596-2.341h-0.053c-0.162,0.72-0.361,1.639-0.541,2.341l-0.738,2.574
		H357.531z"/>
	<path fill="#3C568F" d="M365.916,153.526l-3.889-12.136h3.008l1.477,5.132c0.414,1.458,0.791,2.826,1.08,4.339h0.053
		c0.307-1.458,0.686-2.898,1.1-4.285l1.549-5.186h2.916l-4.088,12.136H365.916z"/>
	<path fill="#3C568F" d="M382.465,148.395H378v2.881h4.986v2.251h-7.725v-12.136h7.473v2.251H378v2.521h4.465V148.395z"/>
	<path fill="#3C568F" d="M385.752,141.391h2.738v9.831h4.824v2.305h-7.562V141.391z"/>
</g>
<path fill="#3C568F" d="M226.642,130.095h-36.188V74.947h34.465v10.911h-23.552v10.917h21.828v10.911h-21.828v11.492h25.275V130.095
	z"/>
<path fill="#3C568F" d="M290.859,131.837l-40.211-34.756v33.014h-10.911V73.223l40.21,34.75V74.947h10.912V131.837z"/>
<path fill="#3C568F" d="M347.999,74.947l-24.989,56.867l-24.987-56.867h12.002l12.985,29.557l12.991-29.557H347.999z"/>
<path fill="#3C568F" d="M406.602,102.516c0,7.852-2.777,14.555-8.331,20.109c-5.549,5.554-12.252,8.327-20.104,8.327
	c-7.849,0-14.551-2.773-20.104-8.327c-5.554-5.555-8.326-12.258-8.326-20.109c0-7.848,2.772-14.55,8.326-20.099
	c5.554-5.555,12.256-8.332,20.104-8.332c7.852,0,14.555,2.777,20.104,8.332C403.824,87.965,406.602,94.667,406.602,102.516z
	 M395.689,102.516c0-4.833-1.713-8.959-5.134-12.384c-3.426-3.42-7.551-5.135-12.389-5.135c-4.834,0-8.96,1.714-12.385,5.135
	c-3.425,3.425-5.135,7.551-5.135,12.384c0,4.838,1.71,8.965,5.135,12.389c3.425,3.421,7.551,5.135,12.385,5.135
	c4.838,0,8.963-1.714,12.389-5.135C393.977,111.48,395.689,107.354,395.689,102.516z"/>
<path fill="#3C568F" d="M459.574,74.947l-20.605,31.021v24.127h-10.912v-24.132l-20.68-31.016h13.115l13.014,19.389l12.968-19.389
	H459.574z"/>
<circle fill="#3C568F" cx="150.091" cy="83.224" r="7.902"/>
<circle fill="#3C568F" cx="122.385" cy="55.513" r="7.901"/>
<circle fill="#3C568F" cx="83.201" cy="55.506" r="7.902"/>
<circle fill="#3C568F" cx="55.486" cy="83.208" r="7.902"/>
<circle fill="#3C568F" cx="55.474" cy="122.392" r="7.902"/>
<circle fill="#3C568F" cx="83.17" cy="150.111" r="7.902"/>
<circle fill="#3C568F" cx="122.355" cy="150.129" r="7.902"/>
<circle fill="#3C568F" cx="150.079" cy="122.438" r="7.902"/>
<circle fill="#3C568F" cx="102.785" cy="102.815" r="13.402"/>
<circle fill="#3C568F" cx="132.489" cy="102.815" r="9.347"/>
<circle fill="#3C568F" cx="102.785" cy="73.111" r="9.347"/>
<circle fill="#3C568F" cx="73.081" cy="102.815" r="9.346"/>
<circle fill="#3C568F" cx="102.786" cy="132.519" r="9.346"/>
<circle fill="#3C568F" cx="172.131" cy="102.815" r="6.65"/>
<circle fill="#3C568F" cx="162.836" cy="68.136" r="6.65"/>
<circle fill="#3C568F" cx="137.444" cy="42.753" r="6.65"/>
<circle fill="#3C568F" cx="102.762" cy="33.471" r="6.649"/>
<circle fill="#3C568F" cx="68.085" cy="42.778" r="6.65"/>
<circle fill="#3C568F" cx="42.71" cy="68.178" r="6.649"/>
<circle fill="#3C568F" cx="33.44" cy="102.863" r="6.649"/>
<circle fill="#3C568F" cx="42.758" cy="137.537" r="6.649"/>
<circle fill="#3C568F" cx="68.166" cy="162.902" r="6.649"/>
<path fill="#3C568F" d="M102.862,178.812c-3.672,0.005-6.654-2.969-6.656-6.641c-0.004-3.675,2.969-6.654,6.642-6.658
	c3.674-0.004,6.653,2.972,6.658,6.643C109.51,175.827,106.533,178.809,102.862,178.812"/>
<path fill="#3C568F" d="M140.855,168.588c-3.177,1.841-7.245,0.757-9.085-2.422c-1.84-3.18-0.756-7.246,2.422-9.087
	c3.182-1.842,7.248-0.754,9.087,2.422C145.121,162.679,144.034,166.75,140.855,168.588z"/>
<path fill="#3C568F" d="M168.645,140.734c-1.829,3.184-5.895,4.277-9.079,2.445c-3.183-1.832-4.279-5.896-2.448-9.081
	c1.834-3.185,5.9-4.276,9.081-2.444C169.384,133.483,170.477,137.553,168.645,140.734z"/>
<circle fill="#8FB957" cx="123.79" cy="81.812" r="9.347"/>
<circle fill="#8FB957" cx="81.781" cy="81.811" r="9.347"/>
<circle fill="#8FB957" cx="81.782" cy="123.819" r="9.346"/>
<path fill="#8FB957" d="M130.398,130.427c-3.648,3.652-9.566,3.65-13.219,0c-3.648-3.65-3.648-9.568,0.001-13.217
	c3.651-3.648,9.568-3.648,13.218,0C134.047,120.862,134.047,126.78,130.398,130.427z"/>
<g>
	<path d="M467.273,74.947v0.99h-1.914v4.995h-1.188v-4.995h-1.914v-0.99H467.273z M473.742,80.932l-0.219-3.521
		c-0.022-0.462-0.022-1.034-0.045-1.672h-0.065c-0.154,0.528-0.33,1.232-0.507,1.782l-1.078,3.323h-1.231l-1.079-3.411
		c-0.109-0.462-0.285-1.166-0.418-1.694h-0.065c0,0.55-0.022,1.122-0.044,1.672l-0.221,3.521h-1.144l0.44-5.985h1.781l1.035,2.926
		c0.132,0.462,0.242,0.902,0.396,1.519h0.021c0.154-0.55,0.285-1.057,0.418-1.497l1.034-2.948h1.716l0.463,5.985H473.742z"/>
</g>
<circle fill="#8FB957" cx="153.987" cy="102.815" r="7.901"/>
<circle fill="#8FB957" cx="51.583" cy="102.798" r="7.902"/>
<circle fill="#8FB957" cx="169.767" cy="84.864" r="6.65"/>
<circle fill="#8FB957" cx="151.812" cy="53.773" r="6.65"/>
<circle fill="#8FB957" cx="120.714" cy="35.829" r="6.65"/>
<circle fill="#8FB957" cx="84.811" cy="35.841" r="6.65"/>
<circle fill="#8FB957" cx="53.726" cy="53.808" r="6.649"/>
<circle fill="#8FB957" cx="35.791" cy="84.911" r="6.649"/>
<circle fill="#8FB957" cx="35.816" cy="120.814" r="6.649"/>
<circle fill="#8FB957" cx="53.792" cy="151.893" r="6.649"/>
<circle fill="#8FB957" cx="84.901" cy="169.816" r="6.65"/>
<path fill="#8FB957" d="M122.532,176.201c-3.545,0.955-7.195-1.145-8.148-4.691c-0.956-3.548,1.146-7.195,4.691-8.15
	c3.549-0.954,7.196,1.148,8.151,4.692C128.182,171.598,126.077,175.248,122.532,176.201z"/>
<path fill="#8FB957" d="M156.584,156.49c-2.592,2.602-6.802,2.607-9.402,0.013s-2.607-6.803-0.014-9.404
	c2.597-2.603,6.806-2.604,9.404-0.012C159.175,149.679,159.178,153.892,156.584,156.49z"/>
<path fill="#8FB957" d="M176.216,122.392c-0.944,3.55-4.587,5.659-8.137,4.714c-3.548-0.946-5.659-4.588-4.715-8.138
	c0.948-3.552,4.591-5.659,8.138-4.713C175.052,115.197,177.162,118.846,176.216,122.392z"/>
<circle fill="#8FB957" cx="138.994" cy="66.613" r="7.902"/>
<circle fill="#8FB957" cx="102.794" cy="51.613" r="7.901"/>
<circle fill="#8FB957" cx="66.589" cy="66.601" r="7.902"/>
<circle fill="#8FB957" cx="66.565" cy="139.005" r="7.901"/>
<circle fill="#8FB957" cx="102.761" cy="154.017" r="7.902"/>
<circle fill="#8FB957" cx="138.971" cy="139.04" r="7.902"/>
</svg>
