<?xml version="1.0" encoding="utf-8"?>
<!-- Generator: Adobe Illustrator 18.1.1, SVG Export Plug-In . SVG Version: 6.00 Build 0)  -->
<svg version="1.1" id="Layer_1" xmlns="http://www.w3.org/2000/svg" xmlns:xlink="http://www.w3.org/1999/xlink" x="0px" y="0px"
	 viewBox="0 0 705 215" enable-background="new 0 0 705 215" xml:space="preserve">
<g>
	<path fill="#FFFFFF" d="M397.4,31c26.3-2.2,49.4,17.7,51.6,44.5c0.1,0.7,0.1,1.5,0.1,2.2c0.1-2.1,0.1-4.2-0.1-6.3
		c-2.2-26.7-25.3-46.6-51.6-44.5C371.8,29,352.7,51.2,353.7,77C354.7,53,373.2,33,397.4,31z"/>
	<path fill="#FFFFFF" d="M389.9,149h-7.6l-6.9-66h-0.3l-7.6,66H360l-6.7-70.2h6l4,66h0.3l7.9-66h7.7l6.9,66h0.3l4-66h6L389.9,149z"
		/>
	<path fill="#FFFFFF" d="M415.8,110.7h-10.6V87.2c0-2.8,1.5-4.8,5.2-4.8c3.9,0,5.4,2,5.4,4.8V110.7z M415.8,125.6v15
		c0,2.8-1.2,4.8-5.4,4.8c-4,0-5.2-2-5.2-4.8v-25.7h16.6V86.6c0-5.2-3.5-8.4-11.4-8.4c-7.6,0-11.2,3.2-11.2,8.4v54.5
		c0,4.8,3.7,8.4,11.2,8.4c7.9,0,11.4-3.6,11.4-8.4v-15.5H415.8z"/>
	<path fill="#FFFFFF" d="M443.5,110.7h-10.6V87.2c0-2.8,1.5-4.8,5.2-4.8c3.9,0,5.4,2,5.4,4.8V110.7z M443.5,125.6v15
		c0,2.8-1.2,4.8-5.4,4.8c-4,0-5.2-2-5.2-4.8v-25.7h16.6V86.6c0-5.2-3.5-8.4-11.4-8.4c-7.6,0-11.2,3.2-11.2,8.4v54.5
		c0,4.8,3.7,8.4,11.2,8.4c7.9,0,11.4-3.6,11.4-8.4v-15.5H443.5z"/>
	<path fill="#FFFFFF" d="M455.9,59.6h6V149h-6V59.6z M461.9,108.7l12.6-29.9h6l-12.3,29.5l12.8,40.7h-6L461.9,108.7z"/>
	<path fill="#FFFFFF" d="M151.4,88.8h-6.6v-9.2h6.6V64.3l13.1,0.2v15.1h8.1v9.2h-8.1v45.5c0,5.3,2.4,6.3,6.3,6.3
		c1.5,0,2.5-0.1,3.4-0.4v9.2c-1.5,0.1-4.9,0.4-8.5,0.4c-10.5,0-14.3-3.1-14.3-9.4V88.8z"/>
	<path fill="#FFFFFF" d="M180,78.8h12.3V86h0.3c3.1-6.6,5.3-8.1,11.7-8.1v13.1c-6.6,0-11.2,1.8-11.2,9.1V149H180V78.8z"/>
	<path fill="#FFFFFF" d="M231.2,114.4v18c0,4.8-2.4,8.1-6.9,8.1c-4.2,0-5.2-1.4-5.2-11.7c0-11.1,1.7-14.4,7.8-14.4H231.2z M207,99.5
		h13.1V93c0-4.3,2-5.9,5.6-5.9c4.5,0,5.5,2.7,5.5,6.7v11.3c-15.1,0-17.3,1.1-20.4,4.3c-3.6,3.8-4.8,7-4.8,21.1
		c0,16.8,5,19.2,12.9,19.2c3.4,0,7-1.4,9.4-3.8c1.4-1.4,2.2-2.8,3.8-4.3v7.3h12.3V95c0-12.3-6.6-17.1-18.6-17.1
		c-12.4,0-18.7,4.9-18.7,15.2V99.5z"/>
	<path fill="#FFFFFF" d="M246.9,78.8h13.6l9.1,57.1h0.3l9.1-57.1h13.1L276.5,149h-15.4L246.9,78.8z"/>
	<path fill="#FFFFFF" d="M305.4,94c0-5,1.5-7.7,6.4-7.7c4.5,0,6.3,2.5,6.3,8.8v13.7h-12.7V94z M292.2,132.3c0,13,8.7,17.5,18.6,17.5
		c14.5,0,19.6-6.9,19.6-14v-9.9h-12.3v6.4c0,5.6-1.4,9.1-6.3,9.1c-4.2,0-6.4-1.8-6.4-8.4v-15h25V95.4c0-13-8.7-17.5-19.2-17.5
		c-12.2,0-19,7-19,18.9V132.3z"/>
	<path fill="#FFFFFF" d="M337.4,63.4h13.1V149h-13.1V63.4z"/>
	<g>
		<path fill="#FFFFFF" d="M56.8,97.2v-3.4h18.9v3.4H68v31.1h-3.5V97.2H56.8z"/>
		<path fill="#FFFFFF" d="M80.6,93.9H84v14.5h17.6V93.9h3.4v34.5h-3.4v-16.6H84v16.6h-3.4V93.9z"/>
		<path fill="#FFFFFF" d="M113.4,93.9h19.8v3.4h-16.3V108h16.2v3.4h-16.2V125h16.2v3.4h-19.6V93.9z"/>
	</g>
	<g>
		<path fill="#FFFFFF" d="M520.5,99.6l-2.7,2.5c-1.9-1.9-4-3.3-6.3-4.3c-2.3-1-4.5-1.5-6.7-1.5c-2.7,0-5.3,0.7-7.7,2
			c-2.4,1.3-4.3,3.1-5.7,5.4c-1.3,2.3-2,4.7-2,7.2c0,2.6,0.7,5.1,2.1,7.4c1.4,2.3,3.3,4.2,5.8,5.5c2.5,1.3,5.1,2,8.1,2
			c3.5,0,6.5-1,9-3c2.5-2,3.9-4.6,4.4-7.8h-11v-3.3h14.9c0,5.3-1.6,9.6-4.7,12.7s-7.3,4.7-12.6,4.7c-6.4,0-11.4-2.2-15.1-6.5
			c-2.9-3.3-4.3-7.2-4.3-11.6c0-3.3,0.8-6.3,2.5-9.1c1.6-2.8,3.9-5,6.8-6.6c2.9-1.6,6.1-2.4,9.7-2.4c2.9,0,5.7,0.5,8.3,1.6
			C515.5,95.6,518,97.3,520.5,99.6z"/>
		<path fill="#FFFFFF" d="M529.2,93.9h6.9c3.8,0,6.4,0.2,7.8,0.5c2,0.5,3.7,1.5,5,3c1.3,1.5,1.9,3.4,1.9,5.7c0,1.9-0.4,3.5-1.3,5
			c-0.9,1.4-2.1,2.5-3.8,3.2c-1.6,0.7-3.9,1.1-6.8,1.1l12.4,16H547l-12.4-16h-1.9v16h-3.4V93.9z M532.7,97.2v11.7l5.9,0
			c2.3,0,4-0.2,5.1-0.7c1.1-0.4,2-1.1,2.6-2.1c0.6-1,0.9-2,0.9-3.2c0-1.2-0.3-2.2-0.9-3.2c-0.6-0.9-1.4-1.6-2.5-2
			c-1-0.4-2.7-0.6-5.1-0.6H532.7z"/>
		<path fill="#FFFFFF" d="M574.6,93c5.2,0,9.6,1.7,13.1,5.2c3.5,3.5,5.3,7.8,5.3,12.9c0,5-1.8,9.3-5.3,12.8
			c-3.5,3.5-7.8,5.3-12.8,5.3c-5.1,0-9.4-1.7-12.9-5.2c-3.5-3.5-5.3-7.7-5.3-12.7c0-3.3,0.8-6.4,2.4-9.2c1.6-2.8,3.8-5,6.6-6.6
			C568.4,93.8,571.4,93,574.6,93z M574.8,96.3c-2.6,0-5,0.7-7.3,2c-2.3,1.3-4.1,3.1-5.4,5.4c-1.3,2.3-1.9,4.8-1.9,7.5
			c0,4.1,1.4,7.6,4.3,10.4c2.8,2.8,6.3,4.2,10.3,4.2c2.7,0,5.2-0.6,7.4-1.9c2.3-1.3,4.1-3.1,5.3-5.3c1.3-2.3,1.9-4.8,1.9-7.5
			c0-2.7-0.6-5.2-1.9-7.4c-1.3-2.2-3.1-4-5.4-5.3C579.8,97,577.4,96.3,574.8,96.3z"/>
		<path fill="#FFFFFF" d="M600,93.9h3.4v20.8c0,2.5,0,4,0.1,4.6c0.2,1.4,0.6,2.5,1.2,3.4c0.6,0.9,1.6,1.7,2.9,2.3
			c1.3,0.6,2.6,0.9,3.9,0.9c1.1,0,2.2-0.2,3.3-0.7c1-0.5,1.9-1.2,2.6-2c0.7-0.9,1.2-1.9,1.5-3.1c0.2-0.9,0.4-2.7,0.4-5.4V93.9h3.4
			v20.8c0,3.1-0.3,5.6-0.9,7.5c-0.6,1.9-1.8,3.6-3.6,5c-1.8,1.4-4,2.1-6.6,2.1c-2.8,0-5.2-0.7-7.1-2c-2-1.3-3.3-3.1-4-5.3
			c-0.4-1.3-0.6-3.8-0.6-7.3V93.9z"/>
		<path fill="#FFFFFF" d="M631.3,93.9h6.9c3.9,0,6.6,0.2,8,0.5c2,0.5,3.6,1.5,4.8,3c1.2,1.5,1.9,3.4,1.9,5.7c0,2.3-0.6,4.2-1.8,5.7
			c-1.2,1.5-2.9,2.5-5,3c-1.6,0.4-4.5,0.6-8.8,0.6h-2.5v16h-3.4V93.9z M634.8,97.2v11.7l5.8,0.1c2.4,0,4.1-0.2,5.2-0.6
			c1.1-0.4,2-1.1,2.6-2.1c0.6-1,0.9-2,0.9-3.2c0-1.2-0.3-2.2-0.9-3.2c-0.6-1-1.4-1.6-2.5-2c-1-0.4-2.7-0.6-5-0.6H634.8z"/>
	</g>
</g>
</svg>
